<svg viewBox="0 0 12 12" xmlns="http://www.w3.org/2000/svg" xmlns:xlink="http://www.w3.org/1999/xlink" width="12.000000" height="12.000000" fill="none">
	<rect id="svg" width="12.000000" height="12.000000" x="0.000000" y="0.000000" />
	<path id="6296" d="M10.9003 4.99999C11.1029 5.99409 10.9982 7.02629 10.6003 7.95951C10.2023 8.89273 9.52993 9.68283 8.67234 10.2249C7.81475 10.7669 6.81256 11.0352 5.79886 10.9942C4.78516 10.9532 3.80792 10.6048 2.99692 9.99525C2.18592 9.38571 1.57952 8.54388 1.25827 7.58156C0.937017 6.61925 0.916104 5.58197 1.19831 4.60748C1.48051 3.63299 2.05248 2.76741 2.83825 2.12568C3.62403 1.48394 4.58643 1.09643 5.59765 1.01459C6.60887 0.932751 7.62106 1.16046 8.4998 1.66749" fill-rule="nonzero" stroke="rgb(0,130,54)" stroke-linecap="round" stroke-linejoin="round" stroke-width="1.000000" />
	<path id="6297" d="M4.5 5.5L6 7L11 2" fill-rule="nonzero" stroke="rgb(0,130,54)" stroke-linecap="round" stroke-linejoin="round" stroke-width="1.000000" />
	<rect id="path.[object SVGAnimatedString]" width="10.000000" height="10.000000" x="1.000000" y="1.000000" />
	<rect id="path.[object SVGAnimatedString]" width="6.500000" height="5.000000" x="5.000000" y="2.000000" />
</svg>
