<svg width="16" height="16" viewBox="0 0 16 16" fill="none" xmlns="http://www.w3.org/2000/svg">
<path d="M6.5 8C6.36739 8 6.24021 8.05268 6.14645 8.14645C6.05268 8.24021 6 8.36739 6 8.5C6 8.63261 6.05268 8.75979 6.14645 8.85355C6.24021 8.94732 6.36739 9 6.5 9H9.5C9.63261 9 9.75979 8.94732 9.85355 8.85355C9.94732 8.75979 10 8.63261 10 8.5C10 8.36739 9.94732 8.24021 9.85355 8.14645C9.75979 8.05268 9.63261 8 9.5 8H6.5ZM1 3.5C1 3.10218 1.15804 2.72064 1.43934 2.43934C1.72064 2.15804 2.10218 2 2.5 2H13.5C13.8978 2 14.2794 2.15804 14.5607 2.43934C14.842 2.72064 15 3.10218 15 3.5V4.5C15.0002 4.81033 14.9041 5.11306 14.725 5.36649C14.5459 5.61992 14.2926 5.81156 14 5.915V11.5C14 12.163 13.7366 12.7989 13.2678 13.2678C12.7989 13.7366 12.163 14 11.5 14H4.5C3.83696 14 3.20107 13.7366 2.73223 13.2678C2.26339 12.7989 2 12.163 2 11.5V5.915C1.70742 5.81156 1.45413 5.61992 1.27503 5.36649C1.09593 5.11306 0.999838 4.81033 1 4.5V3.5ZM2.5 3C2.36739 3 2.24022 3.05268 2.14645 3.14645C2.05268 3.24021 2 3.36739 2 3.5V4.5C2 4.63261 2.05268 4.75979 2.14645 4.85355C2.24022 4.94732 2.36739 5 2.5 5H13.5C13.6326 5 13.7598 4.94732 13.8536 4.85355C13.9473 4.75979 14 4.63261 14 4.5V3.5C14 3.36739 13.9473 3.24021 13.8536 3.14645C13.7598 3.05268 13.6326 3 13.5 3H2.5ZM3 6V11.5C3 11.8978 3.15804 12.2794 3.43934 12.5607C3.72064 12.842 4.10218 13 4.5 13H11.5C11.8978 13 12.2794 12.842 12.5607 12.5607C12.842 12.2794 13 11.8978 13 11.5V6H3Z" fill="#546772" style="fill:#546772;fill:color(display-p3 0.3294 0.4039 0.4471);fill-opacity:1;"/>
</svg>
