<svg viewBox="0 0 24 24" xmlns="http://www.w3.org/2000/svg" xmlns:xlink="http://www.w3.org/1999/xlink" width="24.000000" height="24.000000" fill="none">
	<rect id="svg" width="24.000000" height="24.000000" x="0.000000" y="0.000000" />
	<path id="6218" d="M13.7299 3.99998C13.5555 3.69218 13.3025 3.43617 12.9969 3.25805C12.6912 3.07993 12.3437 2.98608 11.9899 2.98608C11.6361 2.98608 11.2887 3.07993 10.983 3.25805C10.6773 3.43617 10.4244 3.69218 10.2499 3.99998L2.24993 18C2.07361 18.3053 1.98116 18.6519 1.98194 19.0045C1.98272 19.3571 2.07671 19.7032 2.25438 20.0078C2.43204 20.3124 2.68708 20.5646 2.99362 20.7388C3.30017 20.9131 3.64734 21.0032 3.99993 21L19.9999 21C20.3508 20.9996 20.6955 20.9069 20.9992 20.7313C21.303 20.5556 21.5551 20.3031 21.7304 19.9991C21.9057 19.6951 21.998 19.3504 21.9979 18.9995C21.9978 18.6486 21.9054 18.3039 21.7299 18L13.7299 3.99998Z" fill-rule="nonzero" stroke="rgb(208,135,0)" stroke-linecap="round" stroke-linejoin="round" stroke-width="2.000000" />
	<path id="6219" d="M12 9L12 13" stroke="rgb(208,135,0)" stroke-linecap="round" stroke-linejoin="round" stroke-width="2.000000" />
	<path id="6220" d="M12 17L12.01 17" stroke="rgb(208,135,0)" stroke-linecap="round" stroke-linejoin="round" stroke-width="2.000000" />
	<rect id="path.[object SVGAnimatedString]" width="20.020000" height="18.000000" x="2.000000" y="3.000000" />
</svg>
