<svg viewBox="0 0 16 16" xmlns="http://www.w3.org/2000/svg" xmlns:xlink="http://www.w3.org/1999/xlink" width="16.000000" height="16.000000" fill="none">
	<rect id="svg" width="16.000000" height="16.000000" x="0.000000" y="0.000000" />
	<path id="6276" d="M6.76612 13.6841C6.83123 13.7895 6.92443 13.8746 7.03526 13.93L8.36859 14.5967C8.47025 14.6475 8.58322 14.6714 8.69675 14.6663C8.81029 14.6612 8.92062 14.6271 9.01728 14.5673C9.11393 14.5075 9.1937 14.424 9.249 14.3247C9.30431 14.2254 9.33331 14.1137 9.33326 14L9.33326 9.33333C9.33333 9.16953 9.36359 9.00714 9.42251 8.8543C9.48144 8.70147 9.56802 8.56079 9.67792 8.43933L14.4933 3.11333C14.5796 3.01771 14.6363 2.89912 14.6567 2.77192C14.677 2.64472 14.66 2.51435 14.6079 2.39658C14.5557 2.27881 14.4705 2.17868 14.3626 2.1083C14.2547 2.03792 14.1287 2.0003 13.9999 2L1.99992 2C1.87099 2.00005 1.74484 2.03748 1.63676 2.10776C1.52867 2.17804 1.44328 2.27815 1.39093 2.39598C1.33858 2.5138 1.32151 2.64427 1.34181 2.77159C1.3621 2.89892 1.41887 3.01762 1.50526 3.11333L6.32192 8.43933C6.43183 8.56079 6.51841 8.70147 6.57733 8.8543C6.63626 9.00714 6.66651 9.16953 6.66659 9.33333L6.66659 13.3333C6.66653 13.4572 6.701 13.5787 6.76612 13.6841Z" fill-rule="nonzero" stroke="rgb(32,32,32)" stroke-linecap="round" stroke-linejoin="round" stroke-width="1.500000" />
	<rect id="path.[object SVGAnimatedString]" width="13.330000" height="13.000000" x="1.000000" y="2.000000" />
</svg>
