<svg viewBox="0 0 20 20" xmlns="http://www.w3.org/2000/svg" xmlns:xlink="http://www.w3.org/1999/xlink" width="20.000000" height="20.000000" fill="none">
	<rect id="svg" width="20.000000" height="20.000000" x="0.000000" y="0.000000" />
	<path id="6241" d="M10.2833 18.2917C10.1932 18.3222 10.0986 18.3371 10.0034 18.3357C9.90832 18.3342 9.81414 18.3165 9.72499 18.2833C6.24999 17.0833 3.33333 15 3.33333 10.8333L3.33333 5C3.33333 4.85372 3.37183 4.71001 3.44497 4.58333C3.51811 4.45665 3.62331 4.35145 3.74999 4.27831C3.87668 4.20517 4.02038 4.16667 4.16666 4.16667C5.83333 4.16667 7.91666 3.16667 9.36666 1.9C9.48367 1.80003 9.62269 1.72918 9.77233 1.69324C9.92198 1.65731 10.078 1.65731 10.2277 1.69324C10.3773 1.72918 10.5163 1.80003 10.6333 1.9C12.0917 3.175 14.1667 4.16667 15.8333 4.16667C15.9796 4.16667 16.1233 4.20517 16.25 4.27831C16.3767 4.35145 16.4819 4.45665 16.555 4.58333C16.6282 4.71001 16.6667 4.85372 16.6667 5L16.6667 10.8333C16.6667 15 13.75 17.0833 10.2833 18.2917Z" fill-rule="nonzero" stroke="rgb(255,255,255)" stroke-linecap="round" stroke-linejoin="round" stroke-width="1.666667" />
	<path id="6242" d="M7.5 10L9.16667 11.6667L12.5 8.33333" fill-rule="nonzero" stroke="rgb(255,255,255)" stroke-linecap="round" stroke-linejoin="round" stroke-width="1.666667" />
	<rect id="path.[object SVGAnimatedString]" width="13.330000" height="17.000000" x="3.000000" y="1.000000" />
	<rect id="path.[object SVGAnimatedString]" width="5.000000" height="3.000000" x="8.000000" y="8.000000" />
</svg>
