<svg viewBox="0 0 24 24" xmlns="http://www.w3.org/2000/svg" xmlns:xlink="http://www.w3.org/1999/xlink" width="24.000000" height="24.000000" fill="none">
	<rect id="svg" width="24.000000" height="24.000000" x="0.000000" y="0.000000" />
	<path id="6204" d="M12.34 21.95C12.2319 21.9866 12.1183 22.0045 12.0041 22.0028C11.89 22.0011 11.777 21.9798 11.67 21.94C7.5 20.5 4 18 4 13L4 5.99999C4 5.82446 4.04621 5.65201 4.13397 5.49999C4.22174 5.34797 4.34798 5.22173 4.5 5.13397C4.65202 5.0462 4.82446 4.99999 5 4.99999C7 4.99999 9.5 3.79999 11.24 2.27999C11.3804 2.16003 11.5472 2.07501 11.7268 2.03188C11.9064 1.98876 12.0936 1.98876 12.2732 2.03188C12.4528 2.07501 12.6196 2.16003 12.76 2.27999C14.51 3.80999 17 4.99999 19 4.99999C19.1755 4.99999 19.348 5.0462 19.5 5.13397C19.652 5.22173 19.7783 5.34797 19.866 5.49999C19.9538 5.65201 20 5.82446 20 5.99999L20 13C20 18 16.5 20.5 12.34 21.95Z" fill-rule="nonzero" stroke="rgb(21,93,252)" stroke-linecap="round" stroke-linejoin="round" stroke-width="2.000000" />
	<path id="6205" d="M9 12L11 14L15 10" fill-rule="nonzero" stroke="rgb(21,93,252)" stroke-linecap="round" stroke-linejoin="round" stroke-width="2.000000" />
	<rect id="path.[object SVGAnimatedString]" width="16.000000" height="20.000000" x="4.000000" y="2.000000" />
	<rect id="path.[object SVGAnimatedString]" width="6.000000" height="4.000000" x="9.000000" y="10.000000" />
</svg>
